<?xml version="1.0" encoding="UTF-8"?>
<svg id="Layer_3" data-name="Layer 3" xmlns="http://www.w3.org/2000/svg" viewBox="0 0 473.33 437.33">
  <defs>
    <style>
      .cls-1 {
        fill: #f22f0f;
      }

      .cls-1, .cls-2, .cls-3 {
        fill-rule: evenodd;
        stroke-width: 0px;
      }

      .cls-2 {
        fill: #006fad;
      }

      .cls-3 {
        fill: #17ad45;
      }
    </style>
  </defs>
  <g>
    <path class="cls-2" d="m165.03,186.06l16.5-16.62c9.66-8.94,19.95-17.38,31.33-24.11l14.16-7.92c13.14-6.57,27.23-11.23,42.05-13.39,13.48-1.96,29.52-.75,41.59,3.74,5.16,1.92,10.09,4.37,14.47,7.61,7.25,5.35,12.82,11.89,16.92,20.04,9.24,18.34,5.93,42.12-1.46,60.54l-3.58,8.18c-5.04,10.5-11.03,20.02-17.82,29.46l-14.02,17.42c-.61.81-1.18,1.19-1.82,2.02-2.78,3.6-13.73,14.41-17.2,17.84l-4.08,3.84c-2.96,2.93-6.29,5.54-9.37,8.39l-11.73,9.87c-.79.62-1.42,1.21-2.23,1.85-1.51,1.19-2.81,2.18-4.29,3.39-1.5,1.22-2.92,2.33-4.45,3.47-1.71,1.27-8.26,5.95-8.91,6.93,1.25.84,2.42,1.64,3.67,2.57,1.27.95,2.38,1.63,3.67,2.57,1.29.94,2.42,1.65,3.66,2.58,1.16.86,2.99,1.57,3.4,3.08,1.79-.15,8.2-4.19,10.32-5.28.62-.32.86-.53,1.52-.88,11.33-6.04,23.28-13.69,33.52-20.96.85-.6,1.63-1.15,2.54-1.78,6.25-4.32,12.17-9.09,18.06-13.86,2.07-1.68,4.21-3.32,6.09-5.19l20.65-20.15,9.4-11.24c4.01-5.13,7.84-10.36,11.16-15.96,1.14-1.92,2.34-3.75,3.37-5.75l1.52-2.8c8.54-15.9,15.04-34.62,15.04-53.36,0-8.72-.54-16.89-2.54-24.82-1.56-6.16-3.33-11.3-5.78-16.54-.65-1.39-1.05-2.51-1.77-3.75-4.04-6.96-8.23-13.92-13.97-19.63-1.04-1.03-1.61-1.99-2.76-3-.59-.52-.85-.61-1.44-1.2-6.66-6.59-16.57-13.24-25.22-16.78-14.94-6.11-24.66-8.13-41.79-8.13-11.62,0-25.22,2.93-35.28,6.96-9.49,3.8-14.92,6.56-23.59,11.69-.85.5-1.34.9-2.18,1.42l-12.31,8.81c-.71.6-1.25,1.07-1.96,1.64l-16.41,15.27c-3.86,4.39-7.77,8.69-11.43,13.29-5.31,6.67-10.07,13.63-14.82,20.7l-5.39,8.77c-1.17,2.05-4.55,7.09-5.03,9.13h0Zm-.24,0l.07.07s-.05-.1-.07-.07Z"/>
    <path class="cls-1" d="m84.63,177.18c0,9,.54,15.49,2.22,23.94,1.15,5.78,2.88,11.39,4.77,16.59,4.14,11.41,10.98,24.77,18.38,34.66.8,1.07,1.41,2.03,2.19,3.09,2.59,3.53,5.26,7.03,8.14,10.34.47.54.74.93,1.2,1.44l9,9.72c1.3,1.29,2.52,3.02,3.98,4.18,2.62,2.09,5.56,5.63,8.2,7.64.62.47.8.7,1.38,1.26.62.61.94.71,1.57,1.31,4.59,4.47,12.42,10.38,17.49,14.19l4.56,3.36c.59.43,1.08.84,1.64,1.24l12.58,8.54c4.4,2.88,8.64,5.57,13.11,8.25,1.14.68,2.17,1.28,3.33,1.95,1.1.63,2.12,1.33,3.3,1.98l20.71,11.21c1.77.89,13.38,6.95,14.37,6.88,2.22-.14,11.39-6.17,14.43-6.88-.63-.94-3.86-2.9-4.99-3.65l-40.16-30.64-27.63-25.65c-.74-.74-1.48-1.4-2.16-2.16l-3.24-3.48c-7.43-8.04-14.37-16.63-20.8-25.52-4.43-6.13-8.46-12.46-12.06-19.14-7.52-13.96-14.48-31.92-14.48-47.68,0-11.18,1.07-19.73,5.6-28.72,2.08-4.13,4.18-7.69,7.18-11.06.71-.79,1.02-1.28,1.8-2.04.66-.65,1.14-1.14,1.8-1.8,3.05-3.06,6.77-5.83,10.51-7.97,10.12-5.79,22.15-9.37,35.03-9.37l12.98.46c4.34.37,2.79.74,5.32-1.6.73-.67,1.18-.91,1.92-1.68l2.04-1.8c4.88-4.57,13.36-11.13,18.94-14.42.76-.45,1.79-.99,2.24-1.6-3.49-1.85-7.22-3.77-11.04-5.28-16.08-6.34-27.17-8.88-45.12-8.88-20.57,0-41.71,7.99-57.42,20.83l-6,5.28c-2.56,2.25-8.68,9.82-10.26,12.06-3,4.25-5.93,9.15-8.16,14.16-.27.62-.56,1.06-.86,1.78-4.63,11.11-7.54,21.91-7.54,34.7Z"/>
  </g>
  <g>
    <path class="cls-3" d="m203.67,173.82c1.81-.87,6.48.68,6.48-.96,0-2.23.25-11.37-.4-13.04-.91-2.31-5.17-2.21-5.95.45-.35,1.18-.13,11.81-.13,13.55Z"/>
    <path class="cls-3" d="m220.95,161.34v12.24h5.76c.55,0,.72-.17.72-.72,0-2.23.25-11.37-.4-13.04-.96-2.46-6.08-2.35-6.08,1.52Z"/>
    <path class="cls-3" d="m212.31,161.34v12.24h5.76c.55,0,.72-.17.72-.72,0-2.23.25-11.37-.4-13.04-.96-2.46-6.08-2.35-6.08,1.52Z"/>
    <path class="cls-3" d="m279.03,247.74c0,.83-.18.93-.24,1.68,2.72,0,13.51.55,14.95-.89,1.8-1.8,1.02-5.59-2.23-5.59h-12.48v4.8Z"/>
    <path class="cls-3" d="m206.31,273.19c2.55,0,3.84-.27,3.84-4.8,0-12.44.86-10.82-2.88-10.8-1.18,0-2.79.15-3.6-.24l.05,13.63c.19.9,1.4,2.21,2.59,2.21Z"/>
    <path class="cls-3" d="m269.67,257.58h-5.52v12.96c0,2.2,2.17,2.64,3.84,2.64,2.24,0,2.64-2.49,2.64-4.8v-10.32c0-1.01-.37-.48-.96-.48Z"/>
    <path class="cls-3" d="m279.03,205.5c0,.55.17.72.72.72,2.26,0,11.6.26,13.28-.4,2.46-.96,2.35-6.08-1.52-6.08h-12.48v5.76Z"/>
    <path class="cls-3" d="m279.03,214.14c0,.55.17.72.72.72,2.26,0,11.6.26,13.28-.4,2.46-.96,2.35-6.08-1.52-6.08h-12.48v5.76Z"/>
    <path class="cls-3" d="m279.03,196.86c0,.55.17.72.72.72,2.26,0,11.6.26,13.28-.4,2.46-.96,2.35-6.08-1.52-6.08h-12.48v5.76Z"/>
    <path class="cls-3" d="m279.03,188.22c0,.55.17.72.72.72,2.26,0,11.6.26,13.28-.4,2.46-.96,2.35-6.08-1.52-6.08h-12.48v5.76Z"/>
    <path class="cls-3" d="m279.03,240.06c0,.55.17.72.72.72,2.26,0,11.6.26,13.28-.4,2.46-.96,2.35-6.08-1.52-6.08h-12.48v5.76Z"/>
    <path class="cls-3" d="m279.03,222.78c0,.55.17.72.72.72,2.26,0,11.6.26,13.28-.4,2.46-.96,2.35-6.08-1.52-6.08h-12.48v5.76Z"/>
    <path class="cls-3" d="m279.03,231.43c0,.55.17.72.72.72,2.26,0,11.6.26,13.28-.4,2.46-.96,2.35-6.08-1.52-6.08h-12.48v5.76Z"/>
    <path class="cls-3" d="m255.51,270.54c0,2.2,2.17,2.64,3.84,2.64,2.24,0,2.64-2.49,2.64-4.8v-10.08c0-.55-.17-.72-.72-.72h-5.76v12.96Z"/>
    <path class="cls-3" d="m212.31,270.54c0,2.2,2.17,2.64,3.84,2.64,2.24,0,2.64-2.49,2.64-4.8v-10.08c0-.55-.17-.72-.72-.72h-5.76v12.96Z"/>
    <path class="cls-3" d="m220.95,270.54c0,2.2,2.17,2.64,3.84,2.64,2.24,0,2.64-2.49,2.64-4.8v-10.08c0-.55-.17-.72-.72-.72h-5.76v12.96Z"/>
    <path class="cls-3" d="m238.23,270.54c0,2.2,2.17,2.64,3.84,2.64,2.24,0,2.64-2.49,2.64-4.8v-10.08c0-.55-.17-.72-.72-.72h-5.76v12.96Z"/>
    <path class="cls-3" d="m229.59,270.54c0,2.2,2.17,2.64,3.84,2.64,2.24,0,2.64-2.49,2.64-4.8v-10.08c0-.55-.17-.72-.72-.72h-5.76v12.96Z"/>
    <path class="cls-3" d="m246.87,270.54c0,2.2,2.17,2.64,3.84,2.64,2.24,0,2.64-2.49,2.64-4.8v-10.08c0-.55-.17-.72-.72-.72h-5.76v12.96Z"/>
    <path class="cls-3" d="m179.67,245.58c0,3.52.98,3.84,6.48,3.84,3.04,0,6.08,0,9.12,0l-.24-6.48h-12.72c-1.22,0-2.64,1.42-2.64,2.64Z"/>
    <path class="cls-3" d="m264.15,161.34v12.24h5.52c.59,0,.96.53.96-.48,0-2.26.26-11.6-.4-13.28-.96-2.46-6.08-2.35-6.08,1.52Z"/>
    <path class="cls-3" d="m246.87,161.34v12.24h5.76c.55,0,.72-.17.72-.72,0-2.23.25-11.37-.4-13.04-.96-2.46-6.08-2.35-6.08,1.52Z"/>
    <path class="cls-3" d="m255.51,161.34v12.24h5.76c.55,0,.72-.17.72-.72,0-2.23.25-11.37-.4-13.04-.96-2.46-6.08-2.35-6.08,1.52Z"/>
    <path class="cls-3" d="m238.23,161.34v12.24h5.76c.55,0,.72-.17.72-.72,0-2.23.25-11.37-.4-13.04-.96-2.46-6.08-2.35-6.08,1.52Z"/>
    <path class="cls-3" d="m229.59,161.34v12.24h5.76c.55,0,.72-.17.72-.72,0-2.23.25-11.37-.4-13.04-.96-2.46-6.08-2.35-6.08,1.52Z"/>
    <path class="cls-3" d="m179.67,211.02c0,2.55.27,3.84,4.8,3.84h9.84c.55,0,.72-.17.72-.72v-5.76h-12.72c-1.22,0-2.64,1.42-2.64,2.64Z"/>
    <path class="cls-3" d="m179.67,202.38c0,2.55.27,3.84,4.8,3.84h9.84c.55,0,.72-.17.72-.72v-5.76h-12.72c-1.22,0-2.64,1.42-2.64,2.64Z"/>
    <path class="cls-3" d="m179.67,193.74c0,2.55.27,3.84,4.8,3.84h9.84c.55,0,.72-.17.72-.72v-5.76h-12.72c-1.22,0-2.64,1.42-2.64,2.64Z"/>
    <path class="cls-3" d="m179.67,185.1c0,2.55.27,3.84,4.8,3.84h9.84c.55,0,.72-.17.72-.72v-5.76h-12.72c-1.22,0-2.64,1.42-2.64,2.64Z"/>
    <path class="cls-3" d="m179.67,219.66c0,2.55.27,3.84,4.8,3.84h9.84c.55,0,.72-.17.72-.72v-5.76h-12.72c-1.22,0-2.64,1.42-2.64,2.64Z"/>
    <path class="cls-3" d="m179.67,236.94c0,2.55.27,3.84,4.8,3.84h9.84c.55,0,.72-.17.72-.72v-5.76h-12.72c-1.22,0-2.64,1.42-2.64,2.64Z"/>
    <path class="cls-3" d="m179.67,228.3c0,2.55.27,3.84,4.8,3.84h9.84c.55,0,.72-.17.72-.72v-5.76h-12.72c-1.22,0-2.64,1.42-2.64,2.64Z"/>
    <path class="cls-3" d="m217.59,223.74c0-3.12,4.56-3.31,4.56,0,0,3.03-4.56,2.51-4.56,0h0Zm36.96-16.08c-3.44,0-2.88-4.56-.24-4.56,2.98,0,3.16,4.56.24,4.56h0Zm-49.92-24.48c-.48,2.07-.34,2.69-.31,4.84l-.03,3.66c.01.6-.02.15.02.59l-.04,14.73c0,.44.08.54.06,1.12-.03.72-.17.5-.17,1.46l.09,5.82c-.15,3.5.2,7.22.03,10.67l-.02,6.46c-.03.32,0,.96.02,1.29.01.8.05,1.68.05,2.45l-.02,5.67c0,.52.03,1.5.01,2.07-.04,1.43-.04,2.4.33,3.98,2.05.48,13.68.34,15.8.32l11.32-.08v-9.12c0-.75-9.11-9.51-9.6-9.84-.78.18-1.49.48-2.4.48-5.35,0-7.82-6.72-4.15-10.39,4.61-4.6,11.61-.22,10.15,6.07,1.14.77,3.36,3.24,4.5,4.38,6.5,6.5,6.78,5.31,6.78,10.98,0,2.19-.23,4.57-.01,6.75.14,1.37.24.69.97.69h12.96c4.54,0,15.2.52,18.48-.24.58-2.5.38-5.19.36-6.9-.05-3.54.26-8.99-.01-12.08-.08-.98-.03-2.79.01-3.53l-.03-7.38c.01-.43,0-.6,0-.8,0-.77,0-.9.03-1.52l.05-28.47c-.07-1.42.05-2.22-.39-4.13-2.66-.62-22.53-.24-26.88-.24,0,7.98-.91,6.41,2.34,9.66,2.03,2.03,5.11,5.7,7.26,7.14,2.66-.62,4.64-.65,6.67,1.49,1.61,1.71,2.09,4.39,1.09,6.75-2.64,6.25-13.27,3.8-11.36-4.4-1.41-.95-4.61-4.49-6.06-5.94-1.66-1.66-5.22-4.29-5.22-6.78v-7.92c-4.86,0-29.95-.39-32.64.24h0Zm-6.96,9.6l.09,19.65c-.02.55.07.82.03,1.54l.13,1.61c0,.51-.12.48-.13,1.03v4.08c0,.41.06.65.06,1.3,0,.79-.11,1.39-.07,2.26.07,1.34,0,3.46,0,5.1,0,2.8.19,5.92-.06,8.69v5.9c-.01.66.03.9.06,1.32.19,2.73.16,5.22,2.46,7.35,1.35,1.24,2.69,1.98,4.63,2.09l45.15.16c4.78-.04,13.47.51,17.54-.05l3.26-.38c2.45-.78,4.31-2.86,5.07-5.25.53-1.66.54-7.64.39-9.42-.2-2.5.25-4.74.06-7.29-.04-.52-.06-.25-.07-.8l.03-26.69c.03-.62-.01-.77-.03-1.08l-.05-15.49c-.05-.6.02-.76.05-1.1.2-2.37.03-5.38-1.29-7.27-2.26-3.24-5.31-3.8-9.4-3.8h-57.6c-4.41,0-8.43,1.24-9.8,5.56-.93,2.93-.31,6.07-.4,8.67-.01.37-.01.51-.03,1l-.09,1.32Z"/>
  </g>
</svg>