<svg id="Layer_2" data-name="Layer 2" xmlns="http://www.w3.org/2000/svg" viewBox="0 0 325.95 207.02"><defs><style>.cls-1{fill:#fff}.cls-1,.cls-2{stroke-width:0}.cls-2{fill:#e83872}</style></defs><circle class="cls-1" cx="178.27" cy="22.71" r="22.71"/><path class="cls-2" d="M325.95 113.02v55.2c-8.83 7.13-19.32 10.15-29.93 10.12l11.22-22.05H293.4l8.93-18.12c13.18-.81 23.62-11.76 23.62-25.15Z"/><path class="cls-1" d="M275.55 83.63v29.4c0 13.92 11.28 25.2 25.2 25.2.53 0 1.06-.02 1.58-.05l-8.93 18.12h13.84l-11.22 22.05c-29.15-.07-59.32-23.07-59.32-46.87V83.63h-20.55V45.42h20.55V3.22h38.85v42.19h50.4v38.21h-50.4ZM197.17 72.58v103.55h-37.8V83.88c0-10.89 10.71-19.4 20.72-21.77 3.62-.87 7.15-.93 10.05 0 4.16 1.31 7.03 4.62 7.03 10.47ZM137.92 107.72c0 38.45-30.87 69.62-68.96 69.62-4.28 0-8.46-.39-12.53-1.15-.22-.04-.44-.08-.66-.13-.62-.13-1.22-.3-1.8-.49-.2-.06-.39-.13-.58-.2h-.01c-.37-.14-.73-.29-1.09-.45-.36-.17-.72-.35-1.06-.53-.68-.37-1.32-.78-1.93-1.23-.45-.34-.89-.7-1.31-1.07h-.01a21.986 21.986 0 0 1-2.45-2.61c-.34-.43-.66-.87-.97-1.32-.15-.22-.3-.45-.45-.68-1.15-1.8-2.06-3.71-2.79-5.59-.24-.64-.46-1.26-.66-1.87-.1-.31-.19-.61-.28-.91-.27-.91-.49-1.79-.68-2.62-.18-.83-.33-1.62-.45-2.34-.03-.23-.07-.47-.1-.69-.11-.86-.18-1.6-.2-2.18-.01-.17-.01-.32-.01-.46h.01c13.54 10.63 24.51 4.23 33.81-13.42 14.75-1.87 26.14-14.44 26.14-29.68 0-16.53-13.4-29.93-29.93-29.93s-29.92 13.4-29.92 29.93h-.11v79.47c0 5.85-5.26 19.82-20.18 19.82H0v-99.29c0-38.45 30.88-69.63 68.96-69.63s68.96 31.18 68.96 69.63Z"/><path class="cls-2" d="M72.75 137.4c-9.3 17.65-20.27 24.05-33.81 13.43h-.01v-43.11h.11c0 16.52 13.4 29.92 29.92 29.92 1.28 0 2.54-.08 3.78-.24h.01Z"/></svg>